<?xml version="1.0" encoding="UTF-8"?>
<svg id="Layer_2" data-name="Layer 2" xmlns="http://www.w3.org/2000/svg" viewBox="0 0 25.33 25.33">
  <defs>
    <style>
      .cls-1 {
        fill: #b4d984;
      }

      .cls-2 {
        fill: #0f0f0f;
      }
    </style>
  </defs>
  <g id="Layer_1-2" data-name="Layer 1">
    <g>
      <g>
        <g>
          <polygon class="cls-1" points="23.37 11.7 23.37 9.74 21.43 9.74 21.43 7.8 21.43 5.85 19.49 5.85 19.49 3.89 17.52 3.89 15.58 3.89 15.58 1.95 13.64 1.95 11.67 1.95 9.73 1.95 9.73 3.89 7.79 3.89 5.85 3.89 5.85 5.85 3.88 5.85 3.88 7.8 3.88 9.74 1.94 9.74 1.94 11.7 1.94 13.64 1.94 15.59 3.88 15.59 3.88 17.55 3.88 19.49 5.85 19.49 5.85 21.43 7.79 21.43 9.73 21.43 9.73 23.4 11.67 23.4 13.64 23.4 15.58 23.4 15.58 21.43 17.52 21.43 19.49 21.43 19.49 19.49 21.43 19.49 21.43 17.55 21.43 15.59 23.37 15.59 23.37 13.64 23.37 11.7"/>
          <g>
            <rect class="cls-2" x="23.37" y="13.64" width="1.96" height="1.94"/>
            <rect class="cls-2" x="23.37" y="11.7" width="1.96" height="1.94"/>
            <rect class="cls-2" x="23.37" y="9.73" width="1.96" height="1.96"/>
            <rect class="cls-2" x="21.43" y="17.54" width="1.94" height="1.94"/>
            <rect class="cls-2" x="21.43" y="15.58" width="1.94" height="1.96"/>
            <rect class="cls-2" x="21.43" y="7.79" width="1.94" height="1.94"/>
            <rect class="cls-2" x="21.43" y="5.85" width="1.94" height="1.94"/>
            <rect class="cls-2" x="19.49" y="19.49" width="1.94" height="1.94"/>
            <rect class="cls-2" x="19.49" y="3.88" width="1.94" height="1.96"/>
            <rect class="cls-2" x="17.52" y="21.43" width="1.96" height="1.96"/>
            <rect class="cls-2" x="17.52" y="1.94" width="1.96" height="1.94"/>
            <rect class="cls-2" x="15.58" y="21.43" width="1.94" height="1.96"/>
            <rect class="cls-2" x="15.58" y="1.94" width="1.94" height="1.94"/>
            <rect class="cls-2" x="13.64" y="23.39" width="1.94" height="1.94"/>
            <rect class="cls-2" x="13.64" width="1.94" height="1.94"/>
            <rect class="cls-2" x="11.67" y="23.39" width="1.96" height="1.94"/>
            <rect class="cls-2" x="11.67" width="1.96" height="1.94"/>
            <rect class="cls-2" x="9.73" y="23.39" width="1.94" height="1.94"/>
            <rect class="cls-2" x="9.73" width="1.94" height="1.94"/>
            <rect class="cls-2" x="7.79" y="21.43" width="1.94" height="1.96"/>
            <rect class="cls-2" x="7.79" y="1.94" width="1.94" height="1.94"/>
            <rect class="cls-2" x="5.85" y="21.43" width="1.94" height="1.96"/>
            <rect class="cls-2" x="5.85" y="1.94" width="1.94" height="1.94"/>
            <rect class="cls-2" x="3.88" y="19.49" width="1.96" height="1.94"/>
            <rect class="cls-2" x="3.88" y="3.88" width="1.96" height="1.96"/>
            <rect class="cls-2" x="1.94" y="17.54" width="1.94" height="1.94"/>
            <rect class="cls-2" x="1.94" y="15.58" width="1.94" height="1.96"/>
            <rect class="cls-2" x="1.94" y="7.79" width="1.94" height="1.94"/>
            <rect class="cls-2" x="1.94" y="5.85" width="1.94" height="1.94"/>
            <rect class="cls-2" y="13.64" width="1.94" height="1.94"/>
            <rect class="cls-2" y="11.7" width="1.94" height="1.94"/>
            <rect class="cls-2" y="9.73" width="1.94" height="1.96"/>
          </g>
        </g>
        <g>
          <rect x="15.35" y="9.31" width="1.35" height="1.34"/>
          <rect x="15.35" y="7.97" width="1.35" height="1.34"/>
          <rect x="14.01" y="7.97" width="1.34" height="1.34"/>
          <rect x="14.01" y="6.62" width="1.34" height="1.35"/>
          <rect x="12.67" y="16.04" width="1.34" height="1.34"/>
          <rect x="12.67" y="14.68" width="1.34" height="1.35"/>
          <rect x="12.67" y="13.34" width="1.34" height="1.34"/>
          <rect x="12.67" y="12" width="1.34" height="1.34"/>
          <rect x="12.67" y="10.65" width="1.34" height="1.35"/>
          <rect x="12.67" y="9.31" width="1.34" height="1.34"/>
          <rect x="12.67" y="7.97" width="1.34" height="1.34"/>
          <rect x="12.67" y="6.62" width="1.34" height="1.35"/>
          <rect x="11.31" y="17.38" width="1.35" height="1.34"/>
          <rect x="11.31" y="16.04" width="1.35" height="1.34"/>
          <rect x="11.31" y="14.68" width="1.35" height="1.35"/>
          <rect x="11.31" y="13.34" width="1.35" height="1.34"/>
          <rect x="9.97" y="17.38" width="1.34" height="1.34"/>
          <rect x="9.97" y="16.04" width="1.34" height="1.34"/>
          <rect x="9.97" y="14.68" width="1.34" height="1.35"/>
          <rect x="9.97" y="13.34" width="1.34" height="1.34"/>
          <rect x="8.63" y="16.04" width="1.34" height="1.34"/>
          <rect x="8.63" y="14.68" width="1.34" height="1.35"/>
        </g>
      </g>
      <rect x="5.82" y="5.82" width="1.95" height="1.95"/>
      <rect x="3.88" y="3.88" width="1.94" height="1.94"/>
      <rect x="17.57" y="17.55" width="1.95" height="1.95"/>
      <rect x="15.6" y="15.6" width="1.97" height="1.95"/>
      <rect x="13.64" y="13.64" width="1.95" height="1.97"/>
      <rect x="11.69" y="11.69" width="1.95" height="1.95"/>
      <rect x="9.75" y="9.74" width="1.95" height="1.95"/>
      <rect x="7.78" y="7.77" width="1.97" height="1.97"/>
    </g>
  </g>
</svg>