<?xml version="1.0" encoding="UTF-8"?>
<svg id="Layer_2" data-name="Layer 2" xmlns="http://www.w3.org/2000/svg" viewBox="0 0 7.72 7.72">
  <defs>
    <style>
      .cls-1 {
        fill: #fff;
      }

      .cls-2 {
        fill: #ef4123;
      }
    </style>
  </defs>
  <g id="Layer_1-2" data-name="Layer 1">
    <g>
      <rect class="cls-2" x="7.02" y="5.61" width=".7" height=".7"/>
      <rect class="cls-2" x="7.02" y="1.4" width=".7" height=".7"/>
      <rect class="cls-2" x="6.32" y="4.91" width=".7" height=".7"/>
      <rect class="cls-2" x="6.32" y="3.5" width=".7" height=".71"/>
      <rect class="cls-2" x="6.32" y="2.1" width=".7" height=".7"/>
      <rect class="cls-2" x="5.62" y="7.01" width=".7" height=".7"/>
      <rect class="cls-2" x="5.62" y="4.21" width=".7" height=".7"/>
      <rect class="cls-2" x="5.62" y="3.5" width=".7" height=".71"/>
      <rect class="cls-2" x="5.62" y="2.8" width=".7" height=".7"/>
      <rect class="cls-2" x="5.62" width=".7" height=".7"/>
      <rect class="cls-2" x="4.92" y="6.31" width=".7" height=".7"/>
      <rect class="cls-2" x="4.92" y="4.91" width=".7" height=".7"/>
      <rect class="cls-2" x="4.92" y="4.21" width=".7" height=".7"/>
      <rect class="cls-2" x="4.92" y="3.5" width=".7" height=".71"/>
      <rect class="cls-2" x="4.92" y="2.8" width=".7" height=".7"/>
      <rect class="cls-2" x="4.92" y="2.1" width=".7" height=".7"/>
      <rect class="cls-2" x="4.92" y=".7" width=".7" height=".7"/>
      <rect class="cls-2" x="4.22" y="5.61" width=".7" height=".7"/>
      <rect class="cls-2" x="4.22" y="4.91" width=".7" height=".7"/>
      <rect class="cls-2" x="4.22" y="4.21" width=".7" height=".7"/>
      <rect class="cls-1" x="4.22" y="3.5" width=".7" height=".71"/>
      <rect class="cls-2" x="4.22" y="2.8" width=".7" height=".7"/>
      <rect class="cls-2" x="4.22" y="2.1" width=".7" height=".7"/>
      <rect class="cls-2" x="4.22" y="1.4" width=".7" height=".7"/>
      <rect class="cls-2" x="3.51" y="6.31" width=".71" height=".7"/>
      <rect class="cls-2" x="3.51" y="5.61" width=".71" height=".7"/>
      <rect class="cls-2" x="3.51" y="4.91" width=".71" height=".7"/>
      <rect class="cls-1" x="3.51" y="4.21" width=".71" height=".7"/>
      <rect x="3.51" y="3.5" width=".71" height=".71"/>
      <rect class="cls-1" x="3.51" y="2.8" width=".71" height=".7"/>
      <rect class="cls-2" x="3.51" y="2.1" width=".71" height=".7"/>
      <rect class="cls-2" x="3.51" y="1.4" width=".71" height=".7"/>
      <rect class="cls-2" x="3.51" y=".7" width=".71" height=".7"/>
      <rect class="cls-2" x="2.81" y="5.61" width=".7" height=".7"/>
      <rect class="cls-2" x="2.81" y="4.91" width=".7" height=".7"/>
      <rect class="cls-2" x="2.81" y="4.21" width=".7" height=".7"/>
      <rect class="cls-1" x="2.81" y="3.5" width=".7" height=".71"/>
      <rect class="cls-2" x="2.81" y="2.8" width=".7" height=".7"/>
      <rect class="cls-2" x="2.81" y="2.1" width=".7" height=".7"/>
      <rect class="cls-2" x="2.81" y="1.4" width=".7" height=".7"/>
      <rect class="cls-2" x="2.11" y="6.31" width=".7" height=".7"/>
      <rect class="cls-2" x="2.11" y="4.91" width=".7" height=".7"/>
      <rect class="cls-2" x="2.11" y="4.21" width=".7" height=".7"/>
      <rect class="cls-2" x="2.11" y="3.5" width=".7" height=".71"/>
      <rect class="cls-2" x="2.11" y="2.8" width=".7" height=".7"/>
      <rect class="cls-2" x="2.11" y="2.1" width=".7" height=".7"/>
      <rect class="cls-2" x="2.11" y=".7" width=".7" height=".7"/>
      <rect class="cls-2" x="1.41" y="7.01" width=".7" height=".7"/>
      <rect class="cls-2" x="1.41" y="4.21" width=".7" height=".7"/>
      <rect class="cls-2" x="1.41" y="3.5" width=".7" height=".71"/>
      <rect class="cls-2" x="1.41" y="2.8" width=".7" height=".7"/>
      <rect class="cls-2" x="1.41" width=".7" height=".7"/>
      <rect class="cls-2" x=".71" y="4.91" width=".7" height=".7"/>
      <rect class="cls-2" x=".71" y="3.5" width=".7" height=".71"/>
      <rect class="cls-2" x=".71" y="2.1" width=".7" height=".7"/>
      <rect class="cls-2" y="5.61" width=".71" height=".7"/>
      <rect class="cls-2" y="1.4" width=".71" height=".7"/>
    </g>
  </g>
</svg>