<?xml version="1.0" encoding="UTF-8"?>
<svg id="Layer_2" data-name="Layer 2" xmlns="http://www.w3.org/2000/svg" viewBox="0 0 3.42 5.38">
  <defs>
    <style>
      .cls-1 {
        fill: #fcfcfb;
      }

      .cls-2 {
        fill: #67b5e0;
      }

      .cls-3 {
        fill: #b2d3e5;
      }
    </style>
  </defs>
  <g id="Layer_1-2" data-name="Layer 1">
    <g>
      <rect class="cls-2" x="2.94" y="3.92" width=".49" height=".49"/>
      <rect class="cls-2" x="2.94" y="3.43" width=".49" height=".49"/>
      <rect class="cls-2" x="2.94" y="2.94" width=".49" height=".49"/>
      <rect class="cls-2" x="2.94" y="2.45" width=".49" height=".49"/>
      <rect class="cls-2" x="2.45" y="4.41" width=".49" height=".49"/>
      <rect class="cls-2" x="2.45" y="3.92" width=".49" height=".49"/>
      <rect class="cls-2" x="2.45" y="3.43" width=".49" height=".49"/>
      <rect class="cls-2" x="2.45" y="2.94" width=".49" height=".49"/>
      <rect class="cls-2" x="2.45" y="2.45" width=".49" height=".49"/>
      <rect class="cls-2" x="2.45" y="1.96" width=".49" height=".49"/>
      <rect class="cls-2" x="2.45" y="1.47" width=".49" height=".49"/>
      <rect class="cls-2" x="1.96" y="4.89" width=".49" height=".49"/>
      <rect class="cls-2" x="1.96" y="4.41" width=".49" height=".49"/>
      <rect class="cls-2" x="1.96" y="3.92" width=".49" height=".49"/>
      <rect class="cls-2" x="1.96" y="3.43" width=".49" height=".49"/>
      <rect class="cls-2" x="1.96" y="2.94" width=".49" height=".49"/>
      <rect class="cls-2" x="1.96" y="2.45" width=".49" height=".49"/>
      <rect class="cls-2" x="1.96" y="1.96" width=".49" height=".49"/>
      <rect class="cls-2" x="1.96" y="1.47" width=".49" height=".49"/>
      <rect class="cls-2" x="1.96" y=".98" width=".49" height=".49"/>
      <rect class="cls-2" x="1.47" y="4.89" width=".49" height=".49"/>
      <rect class="cls-2" x="1.47" y="4.41" width=".49" height=".49"/>
      <rect class="cls-2" x="1.47" y="3.92" width=".49" height=".49"/>
      <rect class="cls-2" x="1.47" y="3.43" width=".49" height=".49"/>
      <rect class="cls-2" x="1.47" y="2.94" width=".49" height=".49"/>
      <rect class="cls-2" x="1.47" y="2.45" width=".49" height=".49"/>
      <rect class="cls-2" x="1.47" y="1.96" width=".49" height=".49"/>
      <rect class="cls-2" x="1.47" y="1.47" width=".49" height=".49"/>
      <rect class="cls-2" x="1.47" y=".98" width=".49" height=".49"/>
      <rect class="cls-2" x="1.47" y=".49" width=".49" height=".49"/>
      <rect class="cls-2" x="1.47" width=".49" height=".49"/>
      <rect class="cls-2" x=".98" y="4.89" width=".49" height=".49"/>
      <rect class="cls-2" x=".98" y="4.41" width=".49" height=".49"/>
      <rect class="cls-1" x=".98" y="3.92" width=".49" height=".49"/>
      <rect class="cls-3" x=".98" y="3.43" width=".49" height=".49"/>
      <rect class="cls-3" x=".98" y="2.94" width=".49" height=".49"/>
      <rect class="cls-2" x=".98" y="2.45" width=".49" height=".49"/>
      <rect class="cls-2" x=".98" y="1.96" width=".49" height=".49"/>
      <rect class="cls-2" x=".98" y="1.47" width=".49" height=".49"/>
      <rect class="cls-2" x=".98" y=".98" width=".49" height=".49"/>
      <rect class="cls-2" x=".49" y="4.41" width=".49" height=".49"/>
      <rect class="cls-1" x=".49" y="3.92" width=".49" height=".49"/>
      <rect class="cls-1" x=".49" y="3.43" width=".49" height=".49"/>
      <rect class="cls-3" x=".49" y="2.94" width=".49" height=".49"/>
      <rect class="cls-2" x=".49" y="2.45" width=".49" height=".49"/>
      <rect class="cls-2" x=".49" y="1.96" width=".49" height=".49"/>
      <rect class="cls-2" x=".49" y="1.47" width=".49" height=".49"/>
      <rect class="cls-2" y="3.92" width=".49" height=".49"/>
      <rect class="cls-2" y="3.43" width=".49" height=".49"/>
      <rect class="cls-2" y="2.94" width=".49" height=".49"/>
      <rect class="cls-2" y="2.45" width=".49" height=".49"/>
    </g>
  </g>
</svg>