<?xml version="1.0" encoding="UTF-8"?>
<svg id="Layer_2" data-name="Layer 2" xmlns="http://www.w3.org/2000/svg" viewBox="0 0 14.08 14.08">
  <defs>
    <style>
      .cls-1 {
        fill: #fff;
      }

      .cls-2 {
        fill: #2f2b27;
      }

      .cls-3 {
        fill: #f3b54b;
      }
    </style>
  </defs>
  <g id="Layer_1-2" data-name="Layer 1">
    <g>
      <rect class="cls-3" x="13.24" y="6.63" width=".83" height=".83"/>
      <rect class="cls-3" x="12.42" y="6.63" width=".83" height=".83"/>
      <rect class="cls-3" x="11.59" y="11.59" width=".83" height=".83"/>
      <rect class="cls-3" x="11.59" y="7.45" width=".83" height=".83"/>
      <rect class="cls-3" x="11.59" y="5.8" width=".83" height=".83"/>
      <rect class="cls-3" x="11.59" y="1.66" width=".83" height=".83"/>
      <rect class="cls-3" x="10.76" y="10.77" width=".83" height=".83"/>
      <rect class="cls-3" x="10.76" y="9.11" width=".83" height=".83"/>
      <rect class="cls-3" x="10.76" y="8.28" width=".83" height=".83"/>
      <rect class="cls-3" x="10.76" y="7.45" width=".83" height=".83"/>
      <rect class="cls-3" x="10.76" y="6.63" width=".83" height=".83"/>
      <rect class="cls-3" x="10.76" y="5.8" width=".83" height=".83"/>
      <rect class="cls-3" x="10.76" y="4.97" width=".83" height=".83"/>
      <rect class="cls-3" x="10.76" y="4.14" width=".83" height=".83"/>
      <rect class="cls-3" x="10.76" y="2.49" width=".83" height=".83"/>
      <rect class="cls-3" x="9.93" y="9.93" width=".83" height=".83"/>
      <rect class="cls-3" x="9.93" y="9.11" width=".83" height=".83"/>
      <rect class="cls-3" x="9.93" y="8.28" width=".83" height=".83"/>
      <rect class="cls-3" x="9.93" y="7.45" width=".83" height=".83"/>
      <rect class="cls-3" x="9.93" y="6.63" width=".83" height=".83"/>
      <rect class="cls-3" x="9.93" y="5.8" width=".83" height=".83"/>
      <rect class="cls-3" x="9.93" y="4.97" width=".83" height=".83"/>
      <rect class="cls-3" x="9.93" y="4.14" width=".83" height=".83"/>
      <rect class="cls-3" x="9.93" y="3.31" width=".83" height=".83"/>
      <rect class="cls-3" x="9.11" y="10.77" width=".83" height=".83"/>
      <rect class="cls-3" x="9.11" y="9.93" width=".83" height=".83"/>
      <rect class="cls-3" x="9.11" y="9.11" width=".83" height=".83"/>
      <rect class="cls-3" x="9.11" y="8.28" width=".83" height=".83"/>
      <rect class="cls-3" x="9.11" y="7.45" width=".83" height=".83"/>
      <rect class="cls-2" x="9.11" y="6.63" width=".83" height=".83"/>
      <rect class="cls-2" x="9.11" y="5.8" width=".83" height=".83"/>
      <rect class="cls-3" x="9.11" y="4.97" width=".83" height=".83"/>
      <rect class="cls-3" x="9.11" y="4.14" width=".83" height=".83"/>
      <rect class="cls-3" x="9.11" y="3.31" width=".83" height=".83"/>
      <rect class="cls-3" x="9.11" y="2.49" width=".83" height=".83"/>
      <rect class="cls-3" x="8.28" y="10.77" width=".83" height=".83"/>
      <rect class="cls-3" x="8.28" y="9.93" width=".83" height=".83"/>
      <rect class="cls-2" x="8.28" y="9.11" width=".83" height=".83"/>
      <rect class="cls-3" x="8.28" y="8.28" width=".83" height=".83"/>
      <rect class="cls-3" x="8.28" y="7.45" width=".83" height=".83"/>
      <rect class="cls-1" x="8.28" y="6.63" width=".83" height=".83"/>
      <rect class="cls-2" x="8.28" y="5.8" width=".83" height=".83"/>
      <rect class="cls-3" x="8.28" y="4.97" width=".83" height=".83"/>
      <rect class="cls-2" x="8.28" y="4.14" width=".83" height=".83"/>
      <rect class="cls-3" x="8.28" y="3.31" width=".83" height=".83"/>
      <rect class="cls-3" x="8.28" y="2.49" width=".83" height=".83"/>
      <rect class="cls-3" x="7.45" y="11.59" width=".83" height=".83"/>
      <rect class="cls-3" x="7.45" y="10.77" width=".83" height=".83"/>
      <rect class="cls-3" x="7.45" y="9.93" width=".83" height=".83"/>
      <rect class="cls-3" x="7.45" y="9.11" width=".83" height=".83"/>
      <rect class="cls-2" x="7.45" y="8.28" width=".83" height=".83"/>
      <rect class="cls-3" x="7.45" y="7.45" width=".83" height=".83"/>
      <rect class="cls-3" x="7.45" y="6.63" width=".83" height=".83"/>
      <rect class="cls-3" x="7.45" y="5.8" width=".83" height=".83"/>
      <rect class="cls-2" x="7.45" y="4.97" width=".83" height=".83"/>
      <rect class="cls-3" x="7.45" y="4.14" width=".83" height=".83"/>
      <rect class="cls-3" x="7.45" y="3.31" width=".83" height=".83"/>
      <rect class="cls-3" x="7.45" y="2.49" width=".83" height=".83"/>
      <rect class="cls-3" x="7.45" y="1.66" width=".83" height=".83"/>
      <rect class="cls-3" x="6.62" y="13.25" width=".83" height=".83"/>
      <rect class="cls-3" x="6.62" y="12.42" width=".83" height=".83"/>
      <rect class="cls-3" x="6.62" y="10.77" width=".83" height=".83"/>
      <rect class="cls-3" x="6.62" y="9.93" width=".83" height=".83"/>
      <rect class="cls-3" x="6.62" y="9.11" width=".83" height=".83"/>
      <rect class="cls-2" x="6.62" y="8.28" width=".83" height=".83"/>
      <rect class="cls-3" x="6.62" y="7.45" width=".83" height=".83"/>
      <rect class="cls-3" x="6.62" y="6.63" width=".83" height=".83"/>
      <rect class="cls-3" x="6.62" y="5.8" width=".83" height=".83"/>
      <rect class="cls-3" x="6.62" y="4.97" width=".83" height=".83"/>
      <rect class="cls-3" x="6.62" y="4.14" width=".83" height=".83"/>
      <rect class="cls-3" x="6.62" y="3.31" width=".83" height=".83"/>
      <rect class="cls-3" x="6.62" y="2.49" width=".83" height=".83"/>
      <rect class="cls-3" x="6.62" y=".83" width=".83" height=".83"/>
      <rect class="cls-3" x="6.62" width=".83" height=".83"/>
      <rect class="cls-3" x="5.79" y="11.59" width=".83" height=".83"/>
      <rect class="cls-3" x="5.79" y="10.77" width=".83" height=".83"/>
      <rect class="cls-3" x="5.79" y="9.93" width=".83" height=".83"/>
      <rect class="cls-3" x="5.79" y="9.11" width=".83" height=".83"/>
      <rect class="cls-2" x="5.79" y="8.28" width=".83" height=".83"/>
      <rect class="cls-3" x="5.79" y="7.45" width=".83" height=".83"/>
      <rect class="cls-3" x="5.79" y="6.63" width=".83" height=".83"/>
      <rect class="cls-3" x="5.79" y="5.8" width=".83" height=".83"/>
      <rect class="cls-2" x="5.79" y="4.97" width=".83" height=".83"/>
      <rect class="cls-3" x="5.79" y="4.14" width=".83" height=".83"/>
      <rect class="cls-3" x="5.79" y="3.31" width=".83" height=".83"/>
      <rect class="cls-3" x="5.79" y="2.49" width=".83" height=".83"/>
      <rect class="cls-3" x="5.79" y="1.66" width=".83" height=".83"/>
      <rect class="cls-3" x="4.97" y="10.77" width=".83" height=".83"/>
      <rect class="cls-3" x="4.97" y="9.93" width=".83" height=".83"/>
      <rect class="cls-2" x="4.97" y="9.11" width=".83" height=".83"/>
      <rect class="cls-3" x="4.97" y="8.28" width=".83" height=".83"/>
      <rect class="cls-3" x="4.97" y="7.45" width=".83" height=".83"/>
      <rect class="cls-2" x="4.97" y="6.63" width=".83" height=".83"/>
      <rect class="cls-2" x="4.97" y="5.8" width=".83" height=".83"/>
      <rect class="cls-3" x="4.97" y="4.97" width=".83" height=".83"/>
      <rect class="cls-2" x="4.97" y="4.14" width=".83" height=".83"/>
      <rect class="cls-3" x="4.97" y="3.31" width=".83" height=".83"/>
      <rect class="cls-3" x="4.97" y="2.49" width=".83" height=".83"/>
      <rect class="cls-3" x="4.13" y="10.77" width=".83" height=".83"/>
      <rect class="cls-3" x="4.13" y="9.93" width=".83" height=".83"/>
      <rect class="cls-3" x="4.13" y="9.11" width=".83" height=".83"/>
      <rect class="cls-3" x="4.13" y="8.28" width=".83" height=".83"/>
      <rect class="cls-3" x="4.13" y="7.45" width=".83" height=".83"/>
      <rect class="cls-1" x="4.13" y="6.63" width=".83" height=".83"/>
      <rect class="cls-2" x="4.13" y="5.8" width=".83" height=".83"/>
      <rect class="cls-3" x="4.13" y="4.97" width=".83" height=".83"/>
      <rect class="cls-3" x="4.13" y="4.14" width=".83" height=".83"/>
      <rect class="cls-3" x="4.13" y="3.31" width=".83" height=".83"/>
      <rect class="cls-3" x="4.13" y="2.49" width=".83" height=".83"/>
      <rect class="cls-3" x="3.31" y="9.93" width=".83" height=".83"/>
      <rect class="cls-3" x="3.31" y="9.11" width=".83" height=".83"/>
      <rect class="cls-3" x="3.31" y="8.28" width=".83" height=".83"/>
      <rect class="cls-3" x="3.31" y="7.45" width=".83" height=".83"/>
      <rect class="cls-3" x="3.31" y="6.63" width=".83" height=".83"/>
      <rect class="cls-3" x="3.31" y="5.8" width=".83" height=".83"/>
      <rect class="cls-3" x="3.31" y="4.97" width=".83" height=".83"/>
      <rect class="cls-3" x="3.31" y="4.14" width=".83" height=".83"/>
      <rect class="cls-3" x="3.31" y="3.31" width=".83" height=".83"/>
      <rect class="cls-3" x="2.48" y="10.77" width=".83" height=".83"/>
      <rect class="cls-3" x="2.48" y="9.11" width=".83" height=".83"/>
      <rect class="cls-3" x="2.48" y="8.28" width=".83" height=".83"/>
      <rect class="cls-3" x="2.48" y="7.45" width=".83" height=".83"/>
      <rect class="cls-3" x="2.48" y="6.63" width=".83" height=".83"/>
      <rect class="cls-3" x="2.48" y="5.8" width=".83" height=".83"/>
      <rect class="cls-3" x="2.48" y="4.97" width=".83" height=".83"/>
      <rect class="cls-3" x="2.48" y="4.14" width=".83" height=".83"/>
      <rect class="cls-3" x="2.48" y="2.49" width=".83" height=".83"/>
      <rect class="cls-3" x="1.65" y="11.59" width=".83" height=".83"/>
      <rect class="cls-3" x="1.65" y="7.45" width=".83" height=".83"/>
      <rect class="cls-3" x="1.65" y="5.8" width=".83" height=".83"/>
      <rect class="cls-3" x="1.65" y="1.66" width=".83" height=".83"/>
      <rect class="cls-3" x=".83" y="6.63" width=".83" height=".83"/>
      <rect class="cls-3" y="6.63" width=".83" height=".83"/>
    </g>
  </g>
</svg>