<?xml version="1.0" encoding="UTF-8"?>
<svg id="Layer_2" data-name="Layer 2" xmlns="http://www.w3.org/2000/svg" viewBox="0 0 12.12 12.13">
  <defs>
    <style>
      .cls-1 {
        fill: #f23333;
      }
    </style>
  </defs>
  <g id="Layer_1-2" data-name="Layer 1">
    <g>
      <rect x="11.02" y="5.52" width="1.1" height="1.1"/>
      <rect x="11.02" y="4.41" width="1.1" height="1.11"/>
      <rect x="11.02" y="3.31" width="1.1" height="1.1"/>
      <rect x="11.02" y="2.21" width="1.1" height="1.1"/>
      <rect x="9.92" y="6.61" width="1.1" height="1.1"/>
      <rect class="cls-1" x="9.92" y="5.52" width="1.1" height="1.1"/>
      <rect x="9.92" y="1.1" width="1.1" height="1.11"/>
      <rect x="8.81" y="7.71" width="1.11" height="1.11"/>
      <rect class="cls-1" x="8.81" y="6.61" width="1.11" height="1.1"/>
      <rect class="cls-1" x="8.81" y="5.52" width="1.11" height="1.1"/>
      <rect x="8.81" width="1.11" height="1.1"/>
      <rect x="7.71" y="8.82" width="1.1" height="1.1"/>
      <rect class="cls-1" x="7.71" y="7.71" width="1.1" height="1.11"/>
      <rect class="cls-1" x="7.71" y="6.61" width="1.1" height="1.1"/>
      <rect class="cls-1" x="7.71" y="5.52" width="1.1" height="1.1"/>
      <rect x="7.71" width="1.1" height="1.1"/>
      <rect x="6.61" y="9.92" width="1.1" height="1.1"/>
      <rect class="cls-1" x="6.61" y="8.82" width="1.1" height="1.1"/>
      <rect class="cls-1" x="6.61" y="7.71" width="1.1" height="1.11"/>
      <rect class="cls-1" x="6.61" y="6.61" width="1.1" height="1.1"/>
      <rect class="cls-1" x="6.61" y="5.52" width="1.1" height="1.1"/>
      <rect x="6.61" width="1.1" height="1.1"/>
      <rect x="5.5" y="11.02" width="1.11" height="1.11"/>
      <rect class="cls-1" x="5.5" y="9.92" width="1.11" height="1.1"/>
      <rect class="cls-1" x="5.5" y="8.82" width="1.11" height="1.1"/>
      <rect class="cls-1" x="5.5" y="7.71" width="1.11" height="1.11"/>
      <rect class="cls-1" x="5.5" y="6.61" width="1.11" height="1.1"/>
      <rect class="cls-1" x="5.5" y="5.52" width="1.11" height="1.1"/>
      <rect x="5.5" y="1.1" width="1.11" height="1.11"/>
      <rect x="4.41" y="9.92" width="1.1" height="1.1"/>
      <rect class="cls-1" x="4.41" y="8.82" width="1.1" height="1.1"/>
      <rect class="cls-1" x="4.41" y="7.71" width="1.1" height="1.11"/>
      <rect class="cls-1" x="4.41" y="6.61" width="1.1" height="1.1"/>
      <rect class="cls-1" x="4.41" y="5.52" width="1.1" height="1.1"/>
      <rect x="4.41" width="1.1" height="1.1"/>
      <rect x="3.31" y="8.82" width="1.1" height="1.1"/>
      <rect class="cls-1" x="3.31" y="7.71" width="1.1" height="1.11"/>
      <rect class="cls-1" x="3.31" y="6.61" width="1.1" height="1.1"/>
      <rect class="cls-1" x="3.31" y="5.52" width="1.1" height="1.1"/>
      <rect x="3.31" width="1.1" height="1.1"/>
      <rect x="2.21" y="7.71" width="1.1" height="1.11"/>
      <rect class="cls-1" x="2.21" y="6.61" width="1.1" height="1.1"/>
      <rect class="cls-1" x="2.21" y="5.52" width="1.1" height="1.1"/>
      <rect x="2.21" width="1.1" height="1.1"/>
      <rect x="1.1" y="6.61" width="1.11" height="1.1"/>
      <rect class="cls-1" x="1.1" y="5.52" width="1.11" height="1.1"/>
      <rect x="1.1" y="1.1" width="1.11" height="1.11"/>
      <rect y="5.52" width="1.1" height="1.1"/>
      <rect y="4.41" width="1.1" height="1.11"/>
      <rect y="3.31" width="1.1" height="1.1"/>
      <rect y="2.21" width="1.1" height="1.1"/>
    </g>
  </g>
</svg>