<?xml version="1.0" encoding="UTF-8"?>
<svg id="Layer_2" data-name="Layer 2" xmlns="http://www.w3.org/2000/svg" viewBox="0 0 120.37 24.35">
  <defs>
    <style>
      .cls-1 {
        fill: #b4d984;
      }
    </style>
  </defs>
  <g id="Layer_1-2" data-name="Layer 1">
    <g>
      <g>
        <path class="cls-1" d="M40.37,12.17V0h6.96v3.48h3.48v3.48h3.48v-3.48h3.48V0h6.96v24.35h-6.96v-10.44h-3.48v3.48h-3.48v-3.48h-3.48v10.44h-6.96v-12.17Z"/>
        <path class="cls-1" d="M75.15,1.74V0h10.43v3.48h3.48v3.48h3.48v17.39h-6.96v-6.96h-10.43v6.96h-6.96V6.96h3.48v-3.48h3.48v-1.74ZM82.11,5.22v-1.74h-3.48v3.48h-3.48v6.96h10.43v-6.96h-3.48v-1.74Z"/>
        <path class="cls-1" d="M96.02,12.17V0h6.96v3.48h3.48v3.48h3.48v3.48h3.48V0h6.96v24.35h-6.96v-3.48h-3.48v-3.48h-3.48v-3.48h-3.48v10.44h-6.96v-12.17Z"/>
      </g>
      <g>
        <rect x="0" y=".17" width="1.41" height="1.41"/>
        <rect x="1.41" y=".17" width="1.42" height="1.41"/>
        <rect x="2.83" y=".17" width="1.41" height="1.41"/>
        <rect x="4.24" y=".17" width="1.41" height="1.41"/>
        <rect x="5.65" y=".17" width="1.41" height="1.41"/>
        <rect x="7.06" y=".17" width="1.41" height="1.41"/>
        <rect x="8.47" y=".17" width="1.42" height="1.41"/>
        <rect x="18.36" y=".17" width="1.41" height="1.41"/>
        <rect x="19.77" y=".17" width="1.41" height="1.41"/>
        <rect x="21.18" y=".17" width="1.41" height="1.41"/>
        <rect x="22.59" y=".17" width="1.41" height="1.41"/>
        <rect x="24" y=".17" width="1.41" height="1.41"/>
        <rect x="25.41" y=".17" width="1.42" height="1.41"/>
        <rect x="0" y="1.58" width="1.41" height="1.41"/>
        <rect x="1.41" y="1.58" width="1.42" height="1.41"/>
        <rect x="2.83" y="1.58" width="1.41" height="1.41"/>
        <rect x="4.24" y="1.58" width="1.41" height="1.41"/>
        <rect x="5.65" y="1.58" width="1.41" height="1.41"/>
        <rect x="7.06" y="1.58" width="1.41" height="1.41"/>
        <rect x="8.47" y="1.58" width="1.42" height="1.41"/>
        <rect x="18.36" y="1.58" width="1.41" height="1.41"/>
        <rect x="19.77" y="1.58" width="1.41" height="1.41"/>
        <rect x="21.18" y="1.58" width="1.41" height="1.41"/>
        <rect x="22.59" y="1.58" width="1.41" height="1.41"/>
        <rect x="24" y="1.58" width="1.41" height="1.41"/>
        <rect x="25.41" y="1.58" width="1.42" height="1.41"/>
        <rect x="1.41" y="2.99" width="1.42" height="1.42"/>
        <rect x="2.83" y="2.99" width="1.41" height="1.42"/>
        <rect x="4.24" y="2.99" width="1.41" height="1.42"/>
        <rect x="5.65" y="2.99" width="1.41" height="1.42"/>
        <rect x="7.06" y="2.99" width="1.41" height="1.42"/>
        <rect x="8.47" y="2.99" width="1.42" height="1.42"/>
        <rect x="18.36" y="2.99" width="1.41" height="1.42"/>
        <rect x="19.77" y="2.99" width="1.41" height="1.42"/>
        <rect x="21.18" y="2.99" width="1.41" height="1.42"/>
        <rect x="22.59" y="2.99" width="1.41" height="1.42"/>
        <rect x="24" y="2.99" width="1.41" height="1.42"/>
        <rect x="31.06" y="2.99" width="1.41" height="1.42"/>
        <rect x="2.83" y="4.41" width="1.41" height="1.41"/>
        <rect x="4.24" y="4.41" width="1.41" height="1.41"/>
        <rect x="5.65" y="4.41" width="1.41" height="1.41"/>
        <rect x="7.06" y="4.41" width="1.41" height="1.41"/>
        <rect x="8.47" y="4.41" width="1.42" height="1.41"/>
        <rect x="9.89" y="4.41" width="1.41" height="1.41"/>
        <rect x="18.36" y="4.41" width="1.41" height="1.41"/>
        <rect x="19.77" y="4.41" width="1.41" height="1.41"/>
        <rect x="21.18" y="4.41" width="1.41" height="1.41"/>
        <rect x="22.59" y="4.41" width="1.41" height="1.41"/>
        <rect x="24" y="4.41" width="1.41" height="1.41"/>
        <rect x="29.65" y="4.41" width="1.41" height="1.41"/>
        <rect x="31.06" y="4.41" width="1.41" height="1.41"/>
        <rect x="32.47" y="4.41" width="1.42" height="1.41"/>
        <rect x="2.83" y="5.82" width="1.41" height="1.41"/>
        <rect x="4.24" y="5.82" width="1.41" height="1.41"/>
        <rect x="5.65" y="5.82" width="1.41" height="1.41"/>
        <rect x="7.06" y="5.82" width="1.41" height="1.41"/>
        <rect x="8.47" y="5.82" width="1.42" height="1.41"/>
        <rect x="9.89" y="5.82" width="1.41" height="1.41"/>
        <rect x="18.36" y="5.82" width="1.41" height="1.41"/>
        <rect x="19.77" y="5.82" width="1.41" height="1.41"/>
        <rect x="21.18" y="5.82" width="1.41" height="1.41"/>
        <rect x="22.59" y="5.82" width="1.41" height="1.41"/>
        <rect x="28.24" y="5.82" width="1.41" height="1.41"/>
        <rect x="29.65" y="5.82" width="1.41" height="1.41"/>
        <rect x="31.06" y="5.82" width="1.41" height="1.41"/>
        <rect x="32.47" y="5.82" width="1.42" height="1.41"/>
        <rect x="33.89" y="5.82" width="1.41" height="1.41"/>
        <rect x="4.24" y="7.23" width="1.41" height="1.41"/>
        <rect x="5.65" y="7.23" width="1.41" height="1.41"/>
        <rect x="7.06" y="7.23" width="1.41" height="1.41"/>
        <rect x="8.47" y="7.23" width="1.42" height="1.41"/>
        <rect x="9.89" y="7.23" width="1.41" height="1.41"/>
        <rect x="11.3" y="7.23" width="1.41" height="1.41"/>
        <rect x="18.36" y="7.23" width="1.41" height="1.41"/>
        <rect x="19.77" y="7.23" width="1.41" height="1.41"/>
        <rect x="21.18" y="7.23" width="1.41" height="1.41"/>
        <rect x="22.59" y="7.23" width="1.41" height="1.41"/>
        <rect x="29.65" y="7.23" width="1.41" height="1.41"/>
        <rect x="31.06" y="7.23" width="1.41" height="1.41"/>
        <rect x="32.47" y="7.23" width="1.42" height="1.41"/>
        <rect x="4.24" y="8.64" width="1.41" height="1.41"/>
        <rect x="5.65" y="8.64" width="1.41" height="1.41"/>
        <rect x="7.06" y="8.64" width="1.41" height="1.41"/>
        <rect x="8.47" y="8.64" width="1.42" height="1.41"/>
        <rect x="9.89" y="8.64" width="1.41" height="1.41"/>
        <rect x="11.3" y="8.64" width="1.41" height="1.41"/>
        <rect x="18.36" y="8.64" width="1.41" height="1.41"/>
        <rect x="19.77" y="8.64" width="1.41" height="1.41"/>
        <rect x="21.18" y="8.64" width="1.41" height="1.41"/>
        <rect x="22.59" y="8.64" width="1.41" height="1.41"/>
        <rect x="31.06" y="8.64" width="1.41" height="1.41"/>
        <rect x="5.65" y="10.05" width="1.41" height="1.41"/>
        <rect x="7.06" y="10.05" width="1.41" height="1.41"/>
        <rect x="8.47" y="10.05" width="1.42" height="1.41"/>
        <rect x="9.89" y="10.05" width="1.41" height="1.41"/>
        <rect x="11.3" y="10.05" width="1.41" height="1.41"/>
        <rect x="12.71" y="10.05" width="1.41" height="1.41"/>
        <rect x="18.36" y="10.05" width="1.41" height="1.41"/>
        <rect x="19.77" y="10.05" width="1.41" height="1.41"/>
        <rect x="21.18" y="10.05" width="1.41" height="1.41"/>
        <rect x="5.65" y="11.46" width="1.41" height="1.42"/>
        <rect x="7.06" y="11.46" width="1.41" height="1.42"/>
        <rect x="8.47" y="11.46" width="1.42" height="1.42"/>
        <rect x="9.89" y="11.46" width="1.41" height="1.42"/>
        <rect x="11.3" y="11.46" width="1.41" height="1.42"/>
        <rect x="12.71" y="11.46" width="1.41" height="1.42"/>
        <rect x="18.36" y="11.46" width="1.41" height="1.42"/>
        <rect x="19.77" y="11.46" width="1.41" height="1.42"/>
        <rect x="21.18" y="11.46" width="1.41" height="1.42"/>
        <rect x="7.06" y="12.88" width="1.41" height="1.41"/>
        <rect x="8.47" y="12.88" width="1.42" height="1.41"/>
        <rect x="9.89" y="12.88" width="1.41" height="1.41"/>
        <rect x="11.3" y="12.88" width="1.41" height="1.41"/>
        <rect x="12.71" y="12.88" width="1.41" height="1.41"/>
        <rect x="14.12" y="12.88" width="1.41" height="1.41"/>
        <rect x="18.36" y="12.88" width="1.41" height="1.41"/>
        <rect x="19.77" y="12.88" width="1.41" height="1.41"/>
        <rect x="21.18" y="12.88" width="1.41" height="1.41"/>
        <rect x="7.06" y="14.29" width="1.41" height="1.41"/>
        <rect x="8.47" y="14.29" width="1.42" height="1.41"/>
        <rect x="9.89" y="14.29" width="1.41" height="1.41"/>
        <rect x="11.3" y="14.29" width="1.41" height="1.41"/>
        <rect x="12.71" y="14.29" width="1.41" height="1.41"/>
        <rect x="14.12" y="14.29" width="1.41" height="1.41"/>
        <rect x="18.36" y="14.29" width="1.41" height="1.41"/>
        <rect x="19.77" y="14.29" width="1.41" height="1.41"/>
        <rect x="21.18" y="14.29" width="1.41" height="1.41"/>
        <rect x="31.06" y="14.29" width="1.41" height="1.41"/>
        <rect x="8.47" y="15.7" width="1.42" height="1.41"/>
        <rect x="9.89" y="15.7" width="1.41" height="1.41"/>
        <rect x="11.3" y="15.7" width="1.41" height="1.41"/>
        <rect x="12.71" y="15.7" width="1.41" height="1.41"/>
        <rect x="14.12" y="15.7" width="1.41" height="1.41"/>
        <rect x="15.53" y="15.7" width="1.41" height="1.41"/>
        <rect x="18.36" y="15.7" width="1.41" height="1.41"/>
        <rect x="19.77" y="15.7" width="1.41" height="1.41"/>
        <rect x="29.65" y="15.7" width="1.41" height="1.41"/>
        <rect x="31.06" y="15.7" width="1.41" height="1.41"/>
        <rect x="32.47" y="15.7" width="1.42" height="1.41"/>
        <rect x="8.47" y="17.11" width="1.42" height="1.41"/>
        <rect x="9.89" y="17.11" width="1.41" height="1.41"/>
        <rect x="11.3" y="17.11" width="1.41" height="1.41"/>
        <rect x="12.71" y="17.11" width="1.41" height="1.41"/>
        <rect x="14.12" y="17.11" width="1.41" height="1.41"/>
        <rect x="15.53" y="17.11" width="1.41" height="1.41"/>
        <rect x="18.36" y="17.11" width="1.41" height="1.41"/>
        <rect x="19.77" y="17.11" width="1.41" height="1.41"/>
        <rect x="28.24" y="17.11" width="1.41" height="1.41"/>
        <rect x="29.65" y="17.11" width="1.41" height="1.41"/>
        <rect x="31.06" y="17.11" width="1.41" height="1.41"/>
        <rect x="32.47" y="17.11" width="1.42" height="1.41"/>
        <rect x="33.89" y="17.11" width="1.41" height="1.41"/>
        <rect x="9.89" y="18.52" width="1.41" height="1.41"/>
        <rect x="11.3" y="18.52" width="1.41" height="1.41"/>
        <rect x="12.71" y="18.52" width="1.41" height="1.41"/>
        <rect x="14.12" y="18.52" width="1.41" height="1.41"/>
        <rect x="15.53" y="18.52" width="1.41" height="1.41"/>
        <rect x="16.94" y="18.52" width="1.42" height="1.41"/>
        <rect x="18.36" y="18.52" width="1.41" height="1.41"/>
        <rect x="19.77" y="18.52" width="1.41" height="1.41"/>
        <rect x="29.65" y="18.52" width="1.41" height="1.41"/>
        <rect x="31.06" y="18.52" width="1.41" height="1.41"/>
        <rect x="32.47" y="18.52" width="1.42" height="1.41"/>
        <rect x="9.89" y="19.93" width="1.41" height="1.42"/>
        <rect x="11.3" y="19.93" width="1.41" height="1.42"/>
        <rect x="12.71" y="19.93" width="1.41" height="1.42"/>
        <rect x="14.12" y="19.93" width="1.41" height="1.42"/>
        <rect x="15.53" y="19.93" width="1.41" height="1.42"/>
        <rect x="16.94" y="19.93" width="1.42" height="1.42"/>
        <rect x="18.36" y="19.93" width="1.41" height="1.42"/>
        <rect x="31.06" y="19.93" width="1.41" height="1.42"/>
        <rect x="11.3" y="21.35" width="1.41" height="1.41"/>
        <rect x="12.71" y="21.35" width="1.41" height="1.41"/>
        <rect x="14.12" y="21.35" width="1.41" height="1.41"/>
        <rect x="15.53" y="21.35" width="1.41" height="1.41"/>
        <rect x="16.94" y="21.35" width="1.42" height="1.41"/>
        <rect x="18.36" y="21.35" width="1.41" height="1.41"/>
        <rect x="11.3" y="22.76" width="1.41" height="1.41"/>
        <rect x="12.71" y="22.76" width="1.41" height="1.41"/>
        <rect x="14.12" y="22.76" width="1.41" height="1.41"/>
        <rect x="15.53" y="22.76" width="1.41" height="1.41"/>
        <rect x="16.94" y="22.76" width="1.42" height="1.41"/>
        <rect x="18.36" y="22.76" width="1.41" height="1.41"/>
      </g>
    </g>
  </g>
</svg>