<?xml version="1.0" encoding="UTF-8"?>
<svg id="Layer_2" data-name="Layer 2" xmlns="http://www.w3.org/2000/svg" viewBox="0 0 25.33 25.33">
  <defs>
    <style>
      .cls-1 {
        fill: #b4d984;
      }

      .cls-2 {
        fill: #0f0f0f;
      }
    </style>
  </defs>
  <g id="Layer_1-2" data-name="Layer 1">
    <g>
      <polygon class="cls-1" points="23.37 11.7 23.37 9.74 21.43 9.74 21.43 7.8 21.43 5.85 19.49 5.85 19.49 3.89 17.52 3.89 15.58 3.89 15.58 1.95 13.64 1.95 11.67 1.95 9.73 1.95 9.73 3.89 7.79 3.89 5.85 3.89 5.85 5.85 3.88 5.85 3.88 7.8 3.88 9.74 1.94 9.74 1.94 11.7 1.94 13.64 1.94 15.59 3.88 15.59 3.88 17.55 3.88 19.49 5.85 19.49 5.85 21.43 7.79 21.43 9.73 21.43 9.73 23.4 11.67 23.4 13.64 23.4 15.58 23.4 15.58 21.43 17.52 21.43 19.49 21.43 19.49 19.49 21.43 19.49 21.43 17.55 21.43 15.59 23.37 15.59 23.37 13.64 23.37 11.7"/>
      <g>
        <g>
          <rect class="cls-2" x="23.37" y="13.64" width="1.96" height="1.94"/>
          <rect class="cls-2" x="23.37" y="11.7" width="1.96" height="1.94"/>
          <rect class="cls-2" x="23.37" y="9.73" width="1.96" height="1.96"/>
          <rect class="cls-2" x="21.43" y="17.54" width="1.94" height="1.94"/>
          <rect class="cls-2" x="21.43" y="15.58" width="1.94" height="1.96"/>
          <rect class="cls-2" x="21.43" y="7.79" width="1.94" height="1.94"/>
          <rect class="cls-2" x="21.43" y="5.85" width="1.94" height="1.94"/>
          <rect class="cls-2" x="19.49" y="19.49" width="1.94" height="1.94"/>
          <rect class="cls-2" x="19.49" y="3.88" width="1.94" height="1.96"/>
          <rect class="cls-2" x="17.52" y="21.43" width="1.96" height="1.96"/>
          <rect class="cls-2" x="17.52" y="1.94" width="1.96" height="1.94"/>
          <rect class="cls-2" x="15.58" y="21.43" width="1.94" height="1.96"/>
          <rect class="cls-2" x="15.58" y="1.94" width="1.94" height="1.94"/>
          <rect class="cls-2" x="13.64" y="23.39" width="1.94" height="1.94"/>
          <rect class="cls-2" x="13.64" width="1.94" height="1.94"/>
          <rect class="cls-2" x="11.67" y="23.39" width="1.96" height="1.94"/>
          <rect class="cls-2" x="11.67" width="1.96" height="1.94"/>
          <rect class="cls-2" x="9.73" y="23.39" width="1.94" height="1.94"/>
          <rect class="cls-2" x="9.73" width="1.94" height="1.94"/>
          <rect class="cls-2" x="7.79" y="21.43" width="1.94" height="1.96"/>
          <rect class="cls-2" x="7.79" y="1.94" width="1.94" height="1.94"/>
          <rect class="cls-2" x="5.85" y="21.43" width="1.94" height="1.96"/>
          <rect class="cls-2" x="5.85" y="1.94" width="1.94" height="1.94"/>
          <rect class="cls-2" x="3.88" y="19.49" width="1.96" height="1.94"/>
          <rect class="cls-2" x="3.88" y="3.88" width="1.96" height="1.96"/>
          <rect class="cls-2" x="1.94" y="17.54" width="1.94" height="1.94"/>
          <rect class="cls-2" x="1.94" y="15.58" width="1.94" height="1.96"/>
          <rect class="cls-2" x="1.94" y="7.79" width="1.94" height="1.94"/>
          <rect class="cls-2" x="1.94" y="5.85" width="1.94" height="1.94"/>
          <rect class="cls-2" y="13.64" width="1.94" height="1.94"/>
          <rect class="cls-2" y="11.7" width="1.94" height="1.94"/>
          <rect class="cls-2" y="9.73" width="1.94" height="1.96"/>
        </g>
        <g>
          <rect class="cls-2" x="14.61" y="17.2" width="1.29" height="1.29"/>
          <rect class="cls-2" x="14.61" y="15.91" width="1.29" height="1.29"/>
          <rect class="cls-2" x="14.61" y="14.61" width="1.29" height="1.3"/>
          <rect class="cls-2" x="14.61" y="13.32" width="1.29" height="1.29"/>
          <rect class="cls-2" x="14.61" y="12.03" width="1.29" height="1.29"/>
          <rect class="cls-2" x="14.61" y="10.73" width="1.29" height="1.3"/>
          <rect class="cls-2" x="14.61" y="9.44" width="1.29" height="1.29"/>
          <rect class="cls-2" x="14.61" y="8.15" width="1.29" height="1.29"/>
          <rect class="cls-2" x="14.61" y="6.85" width="1.29" height="1.3"/>
          <rect class="cls-2" x="13.32" y="17.2" width="1.29" height="1.29"/>
          <rect class="cls-2" x="13.32" y="15.91" width="1.29" height="1.29"/>
          <rect class="cls-2" x="13.32" y="14.61" width="1.29" height="1.3"/>
          <rect class="cls-2" x="13.32" y="13.32" width="1.29" height="1.29"/>
          <rect class="cls-2" x="13.32" y="12.03" width="1.29" height="1.29"/>
          <rect class="cls-2" x="13.32" y="10.73" width="1.29" height="1.3"/>
          <rect class="cls-2" x="13.32" y="9.44" width="1.29" height="1.29"/>
          <rect class="cls-2" x="13.32" y="8.15" width="1.29" height="1.29"/>
          <rect class="cls-2" x="13.32" y="6.85" width="1.29" height="1.3"/>
          <rect class="cls-2" x="10.73" y="17.2" width="1.29" height="1.29"/>
          <rect class="cls-2" x="10.73" y="15.91" width="1.29" height="1.29"/>
          <rect class="cls-2" x="10.73" y="14.61" width="1.29" height="1.3"/>
          <rect class="cls-2" x="10.73" y="13.32" width="1.29" height="1.29"/>
          <rect class="cls-2" x="10.73" y="12.03" width="1.29" height="1.29"/>
          <rect class="cls-2" x="10.73" y="10.73" width="1.29" height="1.3"/>
          <rect class="cls-2" x="10.73" y="9.44" width="1.29" height="1.29"/>
          <rect class="cls-2" x="10.73" y="8.15" width="1.29" height="1.29"/>
          <rect class="cls-2" x="10.73" y="6.85" width="1.29" height="1.3"/>
          <rect class="cls-2" x="9.44" y="17.2" width="1.29" height="1.29"/>
          <rect class="cls-2" x="9.44" y="15.91" width="1.29" height="1.29"/>
          <rect class="cls-2" x="9.44" y="14.61" width="1.29" height="1.3"/>
          <rect class="cls-2" x="9.44" y="13.32" width="1.29" height="1.29"/>
          <rect class="cls-2" x="9.44" y="12.03" width="1.29" height="1.29"/>
          <rect class="cls-2" x="9.44" y="10.73" width="1.29" height="1.3"/>
          <rect class="cls-2" x="9.44" y="9.44" width="1.29" height="1.29"/>
          <rect class="cls-2" x="9.44" y="8.15" width="1.29" height="1.29"/>
          <rect class="cls-2" x="9.44" y="6.85" width="1.29" height="1.3"/>
        </g>
      </g>
    </g>
  </g>
</svg>