<?xml version="1.0" encoding="UTF-8"?>
<svg id="Layer_2" data-name="Layer 2" xmlns="http://www.w3.org/2000/svg" viewBox="0 0 24 24">
  <defs>
    <style>
      .cls-1 {
        fill: #fff;
      }

      .cls-2 {
        fill: #2f2b27;
      }

      .cls-3 {
        fill: #f3b54b;
      }
    </style>
  </defs>
  <g id="Layer_1-2" data-name="Layer 1">
    <g>
      <rect class="cls-3" x="22.59" y="11.29" width="1.41" height="1.41"/>
      <rect class="cls-3" x="21.17" y="11.29" width="1.42" height="1.41"/>
      <rect class="cls-3" x="19.76" y="19.76" width="1.41" height="1.41"/>
      <rect class="cls-3" x="19.76" y="12.7" width="1.41" height="1.41"/>
      <rect class="cls-3" x="19.76" y="9.88" width="1.41" height="1.41"/>
      <rect class="cls-3" x="19.76" y="2.82" width="1.41" height="1.41"/>
      <rect class="cls-3" x="18.35" y="18.35" width="1.41" height="1.41"/>
      <rect class="cls-3" x="18.35" y="15.52" width="1.41" height="1.42"/>
      <rect class="cls-3" x="18.35" y="14.11" width="1.41" height="1.41"/>
      <rect class="cls-3" x="18.35" y="12.7" width="1.41" height="1.41"/>
      <rect class="cls-3" x="18.35" y="11.29" width="1.41" height="1.41"/>
      <rect class="cls-3" x="18.35" y="9.88" width="1.41" height="1.41"/>
      <rect class="cls-3" x="18.35" y="8.47" width="1.41" height="1.41"/>
      <rect class="cls-3" x="18.35" y="7.05" width="1.41" height="1.42"/>
      <rect class="cls-3" x="18.35" y="4.23" width="1.41" height="1.41"/>
      <rect class="cls-3" x="16.94" y="16.94" width="1.41" height="1.41"/>
      <rect class="cls-3" x="16.94" y="15.52" width="1.41" height="1.42"/>
      <rect class="cls-3" x="16.94" y="14.11" width="1.41" height="1.41"/>
      <rect class="cls-3" x="16.94" y="12.7" width="1.41" height="1.41"/>
      <rect class="cls-3" x="16.94" y="11.29" width="1.41" height="1.41"/>
      <rect class="cls-3" x="16.94" y="9.88" width="1.41" height="1.41"/>
      <rect class="cls-3" x="16.94" y="8.47" width="1.41" height="1.41"/>
      <rect class="cls-3" x="16.94" y="7.05" width="1.41" height="1.42"/>
      <rect class="cls-3" x="16.94" y="5.64" width="1.41" height="1.41"/>
      <rect class="cls-3" x="15.53" y="18.35" width="1.41" height="1.41"/>
      <rect class="cls-3" x="15.53" y="16.94" width="1.41" height="1.41"/>
      <rect class="cls-3" x="15.53" y="15.52" width="1.41" height="1.42"/>
      <rect class="cls-3" x="15.53" y="14.11" width="1.41" height="1.41"/>
      <rect class="cls-3" x="15.53" y="12.7" width="1.41" height="1.41"/>
      <rect class="cls-2" x="15.53" y="11.29" width="1.41" height="1.41"/>
      <rect class="cls-2" x="15.53" y="9.88" width="1.41" height="1.41"/>
      <rect class="cls-3" x="15.53" y="8.47" width="1.41" height="1.41"/>
      <rect class="cls-3" x="15.53" y="7.05" width="1.41" height="1.42"/>
      <rect class="cls-2" x="15.53" y="5.64" width="1.41" height="1.41"/>
      <rect class="cls-3" x="15.53" y="4.23" width="1.41" height="1.41"/>
      <rect class="cls-3" x="14.12" y="18.35" width="1.41" height="1.41"/>
      <rect class="cls-2" x="14.12" y="16.94" width="1.41" height="1.41"/>
      <rect class="cls-2" x="14.12" y="15.52" width="1.41" height="1.42"/>
      <rect class="cls-3" x="14.12" y="14.11" width="1.41" height="1.41"/>
      <rect class="cls-3" x="14.12" y="12.7" width="1.41" height="1.41"/>
      <rect class="cls-1" x="14.12" y="11.29" width="1.41" height="1.41"/>
      <rect class="cls-2" x="14.12" y="9.88" width="1.41" height="1.41"/>
      <rect class="cls-3" x="14.12" y="8.47" width="1.41" height="1.41"/>
      <rect class="cls-2" x="14.12" y="7.05" width="1.41" height="1.42"/>
      <rect class="cls-3" x="14.12" y="5.64" width="1.41" height="1.41"/>
      <rect class="cls-3" x="14.12" y="4.23" width="1.41" height="1.41"/>
      <rect class="cls-3" x="12.7" y="19.76" width="1.42" height="1.41"/>
      <rect class="cls-3" x="12.7" y="18.35" width="1.42" height="1.41"/>
      <rect class="cls-3" x="12.7" y="16.94" width="1.42" height="1.41"/>
      <rect class="cls-2" x="12.7" y="15.52" width="1.42" height="1.42"/>
      <rect class="cls-2" x="12.7" y="14.11" width="1.42" height="1.41"/>
      <rect class="cls-3" x="12.7" y="12.7" width="1.42" height="1.41"/>
      <rect class="cls-3" x="12.7" y="11.29" width="1.42" height="1.41"/>
      <rect class="cls-3" x="12.7" y="9.88" width="1.42" height="1.41"/>
      <rect class="cls-3" x="12.7" y="8.47" width="1.42" height="1.41"/>
      <rect class="cls-3" x="12.7" y="7.05" width="1.42" height="1.42"/>
      <rect class="cls-3" x="12.7" y="5.64" width="1.42" height="1.41"/>
      <rect class="cls-3" x="12.7" y="4.23" width="1.42" height="1.41"/>
      <rect class="cls-3" x="12.7" y="2.82" width="1.42" height="1.41"/>
      <rect class="cls-3" x="11.29" y="22.58" width="1.41" height="1.42"/>
      <rect class="cls-3" x="11.29" y="21.17" width="1.41" height="1.41"/>
      <rect class="cls-3" x="11.29" y="18.35" width="1.41" height="1.41"/>
      <rect class="cls-3" x="11.29" y="16.94" width="1.41" height="1.41"/>
      <rect class="cls-2" x="11.29" y="15.52" width="1.41" height="1.42"/>
      <rect class="cls-2" x="11.29" y="14.11" width="1.41" height="1.41"/>
      <rect class="cls-3" x="11.29" y="12.7" width="1.41" height="1.41"/>
      <rect class="cls-3" x="11.29" y="11.29" width="1.41" height="1.41"/>
      <rect class="cls-3" x="11.29" y="9.88" width="1.41" height="1.41"/>
      <rect class="cls-3" x="11.29" y="8.47" width="1.41" height="1.41"/>
      <rect class="cls-3" x="11.29" y="7.05" width="1.41" height="1.42"/>
      <rect class="cls-3" x="11.29" y="5.64" width="1.41" height="1.41"/>
      <rect class="cls-3" x="11.29" y="4.23" width="1.41" height="1.41"/>
      <rect class="cls-3" x="11.29" y="1.41" width="1.41" height="1.41"/>
      <rect class="cls-3" x="11.29" width="1.41" height="1.41"/>
      <rect class="cls-3" x="9.88" y="19.76" width="1.41" height="1.41"/>
      <rect class="cls-3" x="9.88" y="18.35" width="1.41" height="1.41"/>
      <rect class="cls-3" x="9.88" y="16.94" width="1.41" height="1.41"/>
      <rect class="cls-2" x="9.88" y="15.52" width="1.41" height="1.42"/>
      <rect class="cls-2" x="9.88" y="14.11" width="1.41" height="1.41"/>
      <rect class="cls-3" x="9.88" y="12.7" width="1.41" height="1.41"/>
      <rect class="cls-3" x="9.88" y="11.29" width="1.41" height="1.41"/>
      <rect class="cls-3" x="9.88" y="9.88" width="1.41" height="1.41"/>
      <rect class="cls-3" x="9.88" y="8.47" width="1.41" height="1.41"/>
      <rect class="cls-3" x="9.88" y="7.05" width="1.41" height="1.42"/>
      <rect class="cls-3" x="9.88" y="5.64" width="1.41" height="1.41"/>
      <rect class="cls-3" x="9.88" y="4.23" width="1.41" height="1.41"/>
      <rect class="cls-3" x="9.88" y="2.82" width="1.41" height="1.41"/>
      <rect class="cls-3" x="8.47" y="18.35" width="1.41" height="1.41"/>
      <rect class="cls-2" x="8.47" y="16.94" width="1.41" height="1.41"/>
      <rect class="cls-2" x="8.47" y="15.52" width="1.41" height="1.42"/>
      <rect class="cls-3" x="8.47" y="14.11" width="1.41" height="1.41"/>
      <rect class="cls-3" x="8.47" y="12.7" width="1.41" height="1.41"/>
      <rect class="cls-2" x="8.47" y="11.29" width="1.41" height="1.41"/>
      <rect class="cls-2" x="8.47" y="9.88" width="1.41" height="1.41"/>
      <rect class="cls-3" x="8.47" y="8.47" width="1.41" height="1.41"/>
      <rect class="cls-2" x="8.47" y="7.05" width="1.41" height="1.42"/>
      <rect class="cls-3" x="8.47" y="5.64" width="1.41" height="1.41"/>
      <rect class="cls-3" x="8.47" y="4.23" width="1.41" height="1.41"/>
      <rect class="cls-3" x="7.06" y="18.35" width="1.41" height="1.41"/>
      <rect class="cls-3" x="7.06" y="16.94" width="1.41" height="1.41"/>
      <rect class="cls-3" x="7.06" y="15.52" width="1.41" height="1.42"/>
      <rect class="cls-3" x="7.06" y="14.11" width="1.41" height="1.41"/>
      <rect class="cls-3" x="7.06" y="12.7" width="1.41" height="1.41"/>
      <rect class="cls-1" x="7.06" y="11.29" width="1.41" height="1.41"/>
      <rect class="cls-2" x="7.06" y="9.88" width="1.41" height="1.41"/>
      <rect class="cls-3" x="7.06" y="8.47" width="1.41" height="1.41"/>
      <rect class="cls-3" x="7.06" y="7.05" width="1.41" height="1.42"/>
      <rect class="cls-2" x="7.06" y="5.64" width="1.41" height="1.41"/>
      <rect class="cls-3" x="7.06" y="4.23" width="1.41" height="1.41"/>
      <rect class="cls-3" x="5.64" y="16.94" width="1.42" height="1.41"/>
      <rect class="cls-3" x="5.64" y="15.52" width="1.42" height="1.42"/>
      <rect class="cls-3" x="5.64" y="14.11" width="1.42" height="1.41"/>
      <rect class="cls-3" x="5.64" y="12.7" width="1.42" height="1.41"/>
      <rect class="cls-3" x="5.64" y="11.29" width="1.42" height="1.41"/>
      <rect class="cls-3" x="5.64" y="9.88" width="1.42" height="1.41"/>
      <rect class="cls-3" x="5.64" y="8.47" width="1.42" height="1.41"/>
      <rect class="cls-3" x="5.64" y="7.05" width="1.42" height="1.42"/>
      <rect class="cls-3" x="5.64" y="5.64" width="1.42" height="1.41"/>
      <rect class="cls-3" x="4.23" y="18.35" width="1.41" height="1.41"/>
      <rect class="cls-3" x="4.23" y="15.52" width="1.41" height="1.42"/>
      <rect class="cls-3" x="4.23" y="14.11" width="1.41" height="1.41"/>
      <rect class="cls-3" x="4.23" y="12.7" width="1.41" height="1.41"/>
      <rect class="cls-3" x="4.23" y="11.29" width="1.41" height="1.41"/>
      <rect class="cls-3" x="4.23" y="9.88" width="1.41" height="1.41"/>
      <rect class="cls-3" x="4.23" y="8.47" width="1.41" height="1.41"/>
      <rect class="cls-3" x="4.23" y="7.05" width="1.41" height="1.42"/>
      <rect class="cls-3" x="4.23" y="4.23" width="1.41" height="1.41"/>
      <rect class="cls-3" x="2.82" y="19.76" width="1.41" height="1.41"/>
      <rect class="cls-3" x="2.82" y="12.7" width="1.41" height="1.41"/>
      <rect class="cls-3" x="2.82" y="9.88" width="1.41" height="1.41"/>
      <rect class="cls-3" x="2.82" y="2.82" width="1.41" height="1.41"/>
      <rect class="cls-3" x="1.41" y="11.29" width="1.41" height="1.41"/>
      <rect class="cls-3" y="11.29" width="1.41" height="1.41"/>
    </g>
  </g>
</svg>