<?xml version="1.0" encoding="UTF-8"?>
<svg id="Layer_2" data-name="Layer 2" xmlns="http://www.w3.org/2000/svg" viewBox="0 0 24 16.94">
  <defs>
    <style>
      .cls-1 {
        fill: #b4d984;
      }
    </style>
  </defs>
  <g id="Layer_1-2" data-name="Layer 1">
    <g>
      <rect class="cls-1" x="22.59" y="15.53" width="1.41" height="1.41"/>
      <rect class="cls-1" x="22.59" y="14.12" width="1.41" height="1.41"/>
      <rect class="cls-1" x="22.59" y="12.71" width="1.41" height="1.41"/>
      <rect class="cls-1" x="22.59" y="11.3" width="1.41" height="1.41"/>
      <rect class="cls-1" x="21.18" y="15.53" width="1.41" height="1.41"/>
      <rect class="cls-1" x="21.18" y="14.12" width="1.41" height="1.41"/>
      <rect class="cls-1" x="21.18" y="12.71" width="1.41" height="1.41"/>
      <rect class="cls-1" x="21.18" y="11.3" width="1.41" height="1.41"/>
      <rect class="cls-1" x="19.76" y="15.53" width="1.42" height="1.41"/>
      <rect class="cls-1" x="19.76" y="14.12" width="1.42" height="1.41"/>
      <rect class="cls-1" x="19.76" y="12.71" width="1.42" height="1.41"/>
      <rect class="cls-1" x="19.76" y="11.3" width="1.42" height="1.41"/>
      <rect class="cls-1" x="19.76" y="2.83" width="1.42" height="1.41"/>
      <rect class="cls-1" x="18.35" y="15.53" width="1.41" height="1.41"/>
      <rect class="cls-1" x="18.35" y="14.12" width="1.41" height="1.41"/>
      <rect class="cls-1" x="18.35" y="12.71" width="1.41" height="1.41"/>
      <rect class="cls-1" x="18.35" y="11.3" width="1.41" height="1.41"/>
      <rect class="cls-1" x="18.35" y="4.24" width="1.41" height="1.41"/>
      <rect class="cls-1" x="18.35" y="2.83" width="1.41" height="1.41"/>
      <rect class="cls-1" x="18.35" y="1.41" width="1.41" height="1.42"/>
      <rect class="cls-1" x="16.94" y="15.53" width="1.41" height="1.41"/>
      <rect class="cls-1" x="16.94" y="14.12" width="1.41" height="1.41"/>
      <rect class="cls-1" x="16.94" y="12.71" width="1.41" height="1.41"/>
      <rect class="cls-1" x="16.94" y="11.3" width="1.41" height="1.41"/>
      <rect class="cls-1" x="16.94" y="5.65" width="1.41" height="1.41"/>
      <rect class="cls-1" x="16.94" y="4.24" width="1.41" height="1.41"/>
      <rect class="cls-1" x="16.94" y="2.83" width="1.41" height="1.41"/>
      <rect class="cls-1" x="16.94" y="1.41" width="1.41" height="1.42"/>
      <rect class="cls-1" x="16.94" width="1.41" height="1.41"/>
      <rect class="cls-1" x="15.53" y="15.53" width="1.41" height="1.41"/>
      <rect class="cls-1" x="15.53" y="14.12" width="1.41" height="1.41"/>
      <rect class="cls-1" x="15.53" y="12.71" width="1.41" height="1.41"/>
      <rect class="cls-1" x="15.53" y="11.3" width="1.41" height="1.41"/>
      <rect class="cls-1" x="15.53" y="4.24" width="1.41" height="1.41"/>
      <rect class="cls-1" x="15.53" y="2.83" width="1.41" height="1.41"/>
      <rect class="cls-1" x="15.53" y="1.41" width="1.41" height="1.42"/>
      <rect class="cls-1" x="14.12" y="15.53" width="1.41" height="1.41"/>
      <rect class="cls-1" x="14.12" y="14.12" width="1.41" height="1.41"/>
      <rect class="cls-1" x="14.12" y="12.71" width="1.41" height="1.41"/>
      <rect class="cls-1" x="14.12" y="11.3" width="1.41" height="1.41"/>
      <rect class="cls-1" x="14.12" y="2.83" width="1.41" height="1.41"/>
      <rect class="cls-1" x="12.71" y="15.53" width="1.41" height="1.41"/>
      <rect class="cls-1" x="12.71" y="14.12" width="1.41" height="1.41"/>
      <rect class="cls-1" x="12.71" y="12.71" width="1.41" height="1.41"/>
      <rect class="cls-1" x="12.71" y="11.3" width="1.41" height="1.41"/>
      <rect class="cls-1" x="11.29" y="15.53" width="1.42" height="1.41"/>
      <rect class="cls-1" x="11.29" y="14.12" width="1.42" height="1.41"/>
      <rect class="cls-1" x="11.29" y="12.71" width="1.42" height="1.41"/>
      <rect class="cls-1" x="11.29" y="11.3" width="1.42" height="1.41"/>
      <rect class="cls-1" x="9.88" y="15.53" width="1.41" height="1.41"/>
      <rect class="cls-1" x="9.88" y="14.12" width="1.41" height="1.41"/>
      <rect class="cls-1" x="9.88" y="12.71" width="1.41" height="1.41"/>
      <rect class="cls-1" x="9.88" y="11.3" width="1.41" height="1.41"/>
      <rect class="cls-1" x="8.47" y="15.53" width="1.41" height="1.41"/>
      <rect class="cls-1" x="8.47" y="14.12" width="1.41" height="1.41"/>
      <rect class="cls-1" x="8.47" y="12.71" width="1.41" height="1.41"/>
      <rect class="cls-1" x="8.47" y="11.3" width="1.41" height="1.41"/>
      <rect class="cls-1" x="8.47" y="2.83" width="1.41" height="1.41"/>
      <rect class="cls-1" x="7.06" y="15.53" width="1.41" height="1.41"/>
      <rect class="cls-1" x="7.06" y="14.12" width="1.41" height="1.41"/>
      <rect class="cls-1" x="7.06" y="12.71" width="1.41" height="1.41"/>
      <rect class="cls-1" x="7.06" y="11.3" width="1.41" height="1.41"/>
      <rect class="cls-1" x="7.06" y="4.24" width="1.41" height="1.41"/>
      <rect class="cls-1" x="7.06" y="2.83" width="1.41" height="1.41"/>
      <rect class="cls-1" x="7.06" y="1.41" width="1.41" height="1.42"/>
      <rect class="cls-1" x="5.65" y="15.53" width="1.41" height="1.41"/>
      <rect class="cls-1" x="5.65" y="14.12" width="1.41" height="1.41"/>
      <rect class="cls-1" x="5.65" y="12.71" width="1.41" height="1.41"/>
      <rect class="cls-1" x="5.65" y="11.3" width="1.41" height="1.41"/>
      <rect class="cls-1" x="5.65" y="5.65" width="1.41" height="1.41"/>
      <rect class="cls-1" x="5.65" y="4.24" width="1.41" height="1.41"/>
      <rect class="cls-1" x="5.65" y="2.83" width="1.41" height="1.41"/>
      <rect class="cls-1" x="5.65" y="1.41" width="1.41" height="1.42"/>
      <rect class="cls-1" x="5.65" width="1.41" height="1.41"/>
      <rect class="cls-1" x="4.24" y="15.53" width="1.41" height="1.41"/>
      <rect class="cls-1" x="4.24" y="14.12" width="1.41" height="1.41"/>
      <rect class="cls-1" x="4.24" y="12.71" width="1.41" height="1.41"/>
      <rect class="cls-1" x="4.24" y="11.3" width="1.41" height="1.41"/>
      <rect class="cls-1" x="4.24" y="4.24" width="1.41" height="1.41"/>
      <rect class="cls-1" x="4.24" y="2.83" width="1.41" height="1.41"/>
      <rect class="cls-1" x="4.24" y="1.41" width="1.41" height="1.42"/>
      <rect class="cls-1" x="2.82" y="15.53" width="1.42" height="1.41"/>
      <rect class="cls-1" x="2.82" y="14.12" width="1.42" height="1.41"/>
      <rect class="cls-1" x="2.82" y="12.71" width="1.42" height="1.41"/>
      <rect class="cls-1" x="2.82" y="11.3" width="1.42" height="1.41"/>
      <rect class="cls-1" x="2.82" y="2.83" width="1.42" height="1.41"/>
      <rect class="cls-1" x="1.41" y="15.53" width="1.41" height="1.41"/>
      <rect class="cls-1" x="1.41" y="14.12" width="1.41" height="1.41"/>
      <rect class="cls-1" x="1.41" y="12.71" width="1.41" height="1.41"/>
      <rect class="cls-1" x="1.41" y="11.3" width="1.41" height="1.41"/>
      <rect class="cls-1" y="15.53" width="1.41" height="1.41"/>
      <rect class="cls-1" y="14.12" width="1.41" height="1.41"/>
      <rect class="cls-1" y="12.71" width="1.41" height="1.41"/>
      <rect class="cls-1" y="11.3" width="1.41" height="1.41"/>
    </g>
  </g>
</svg>